<svg width="32" height="32" viewBox="0 0 32 32" fill="none" xmlns="http://www.w3.org/2000/svg">
<rect width="32" height="32" rx="5" fill="#007EF8"/>
<path d="M16.5 7.3C16.5 7.41046 16.4105 7.5 16.3 7.5H12.5C11.3954 7.5 10.5 8.39543 10.5 9.5V21.5C10.5 22.6046 11.3954 23.5 12.5 23.5H13.3C13.4105 23.5 13.5 23.5895 13.5 23.7V25.8C13.5 25.9105 13.4105 26 13.3 26H12.5C10.0147 26 8 23.9853 8 21.5V9.5C8 7.01472 10.0147 5 12.5 5H16.3C16.4105 5 16.5 5.08954 16.5 5.2V7.3Z" fill="#0F172A"/>
<path d="M19.5 5C19.7761 5 20 5.22386 20 5.5V7C20 7.27614 19.7761 7.5 19.5 7.5H18C17.7239 7.5 17.5 7.27614 17.5 7V5.5C17.5 5.22386 17.7239 5 18 5H19.5Z" fill="white"/>
<path d="M19.5 23.5C19.7761 23.5 20 23.7239 20 24V25.5C20 25.7761 19.7761 26 19.5 26H18C17.7239 26 17.5 25.7761 17.5 25.5V24C17.5 23.7239 17.7239 23.5 18 23.5H19.5Z" fill="white"/>
<path d="M16.5 23.5C16.7761 23.5 17 23.7239 17 24V25.5C17 25.7761 16.7761 26 16.5 26H15C14.7239 26 14.5 25.7761 14.5 25.5V24C14.5 23.7239 14.7239 23.5 15 23.5H16.5Z" fill="white"/>
<path d="M22.5 5C22.7761 5 23 5.22386 23 5.5V7C23 7.27614 22.7761 7.5 22.5 7.5H21C20.7239 7.5 20.5 7.27614 20.5 7V5.5C20.5 5.22386 20.7239 5 21 5H22.5Z" fill="#D3E9FF"/>
<path d="M22.5 23.5C22.7761 23.5 23 23.7239 23 24V25.5C23 25.7761 22.7761 26 22.5 26H21C20.7239 26 20.5 25.7761 20.5 25.5V24C20.5 23.7239 20.7239 23.5 21 23.5H22.5Z" fill="#D3E9FF"/>
</svg>
